<svg width="24" height="24" viewBox="0 0 24 24" fill="none" xmlns="http://www.w3.org/2000/svg">
<path d="M21.8 6.4L19.1 2.8C18.72 2.3 18.13 2 17.5 2H6.5C5.87 2 5.28 2.3 4.9 2.8L2.2 6.4C2.07 6.57 2 6.78 2 7V8C2 9.01 2.39 9.91 3 10.62V20C3 21.1 3.9 22 5 22H19C20.1 22 21 21.1 21 20V10.62C21.61 9.92 22 9.01 22 8V7C22 6.78 21.93 6.57 21.8 6.4ZM17.5 4L20 7.33V8C20 9.1 19.1 10 18 10C16.9 10 16 9.1 16 8V7C16 6.92 16 6.84 15.97 6.76L15.28 4H17.5ZM10.78 4H13.22L14 7.12V8C14 9.1 13.1 10 12 10C10.9 10 10 9.1 10 8V7.12L10.78 4ZM4 7.33L6.5 4H8.72L8.03 6.76C8.01 6.84 8 6.92 8 7V8C8 9.1 7.1 10 6 10C4.9 10 4 9.1 4 8V7.33ZM15 20H9V15C9 14.45 9.45 14 10 14H14C14.55 14 15 14.45 15 15V20Z" fill="#8C8C8C"/>
</svg>
